<?xml version="1.0" encoding="UTF-8" standalone="no"?>
<svg xmlns:dc="http://purl.org/dc/elements/1.1/" xmlns:cc="http://creativecommons.org/ns#" xmlns:rdf="http://www.w3.org/1999/02/22-rdf-syntax-ns#" xmlns:svg="http://www.w3.org/2000/svg" xmlns="http://www.w3.org/2000/svg" id="svg6228" version="1.1" viewBox="0 0 55.777919 17.258617" height="65.229416" width="210.81418">
  <defs id="defs6222">
    <clipPath id="clipPath4803" clipPathUnits="userSpaceOnUse">
      <path id="path4801" d="m 421.284,262.629 -4.248,-14.876 -3.565,9.077 1.497,5.799 h -5.65 l -3.854,-14.876 -4.313,14.876 h -6.07 l 6.884,-21.524 h 6.453 l 2.434,7.797 3.223,-7.797 h 6.343 l 6.957,21.524 z"/>
    </clipPath>
    <clipPath id="clipPath4803-4" clipPathUnits="userSpaceOnUse">
      <path id="path4801-2" d="m 421.284,262.629 -4.248,-14.876 -3.565,9.077 1.497,5.799 h -5.65 l -3.854,-14.876 -4.313,14.876 h -6.07 l 6.884,-21.524 h 6.453 l 2.434,7.797 3.223,-7.797 h 6.343 l 6.957,21.524 z"/>
    </clipPath>
  </defs>
  <metadata id="metadata6225">
    <rdf:RDF>
      <cc:Work rdf:about="">
        <dc:format>image/svg+xml</dc:format>
        <dc:type rdf:resource="http://purl.org/dc/dcmitype/StillImage"/>
        <dc:title/>
      </cc:Work>
    </rdf:RDF>
  </metadata>
  <g transform="translate(11.389449,-283.19023)" id="layer1">
    <g style="fill:#006e96;fill-opacity:1" id="g6171" transform="matrix(0.35277777,0,0,-0.35277777,-125.87196,381.96837)">
      <g style="fill:#006e96;fill-opacity:1" id="g4773" transform="translate(367.5054,245.7065)">
        <path d="m 0,0 c 1.832,0 2.823,1.475 2.823,6.277 0,5.492 -1.032,6.515 -2.823,6.515 -1.962,0 -3.543,-0.235 -5.024,-0.808 V 1.329 C -3.816,0.549 -2.132,0 0,0 m -10.703,27.212 h 5.638 v -11.37 c 1.97,0.898 4.712,1.399 6.536,1.399 5.965,0 7.027,-4.493 7.027,-11.187 0,-6.528 -1.729,-10.904 -7.027,-10.904 -2.555,0 -5.151,1.33 -6.495,2.412 l -1.012,-2.169 h -4.667 z" style="fill:#006e96;fill-opacity:1;fill-rule:nonzero;stroke:none" id="path4775"/>
      </g>
      <path transform="translate(388.131,253.6246)" d="m 0,0 c 1.182,0 1.796,0.582 1.796,1.607 0,2.718 -0.387,3.217 -3.115,3.217 -2.998,0 -4.104,-0.175 -4.06,-4.824 z m -1.65,9.161 c 6.226,0 9.12,-0.71 9.12,-7.844 0,-3.834 -2.107,-5.391 -5.999,-5.391 h -6.85 c 0,-3.885 1.468,-4.116 4.54,-4.116 3.283,0 4.864,-0.018 7.904,0.428 v -3.83 c -3.038,-1.133 -7.661,-1.135 -11.025,-1.135 -5.472,0 -7.093,3.169 -7.093,11.065 0,9.25 2.577,10.823 9.403,10.823" style="fill:#006e96;fill-opacity:1;fill-rule:nonzero;stroke:none" id="path4779"/>
      <g style="fill:#006e96;fill-opacity:1" id="g4781" transform="translate(434.1022,245.4167)">
        <path d="M 0,0 C 2.373,0 4.941,1.666 4.941,1.666 V 5.612 L -0.267,5.208 C -1.765,5.069 -2.012,3.96 -2.012,3.02 V 1.974 C -2.012,0.184 -1.044,0 0,0 m -7.687,3.196 c 0,3.131 1.692,5.904 6.305,5.904 0,0 6.323,-0.041 6.323,0 0,0 0.041,1.337 0,1.378 0,2.294 -1.074,2.655 -2.878,2.655 -1.87,0 -7.27,-0.337 -9.039,-0.464 v 3.504 c 2.834,1.1 5.795,1.42 9.808,1.439 4.635,0.018 7.784,-1.583 7.784,-6.911 V -4.317 H 6.135 L 4.941,-1.946 C 4.704,-2.414 1.682,-4.627 -1.605,-4.56 c -4.14,0.111 -6.082,2.931 -6.082,5.729 z" style="fill:#006e96;fill-opacity:1;fill-rule:nonzero;stroke:none" id="path4783"/>
      </g>
      <g style="fill:#006e96;fill-opacity:1" id="g4785" transform="translate(450.1563,262.623)">
        <path d="M 0,0 4.7,-14.876 9.548,0 h 6.047 L 7.786,-21.523 H 1.443 L -6.07,0 Z" style="fill:#006e96;fill-opacity:1;fill-rule:nonzero;stroke:none" id="path4787"/>
      </g>
      <g style="fill:#006e96;fill-opacity:1" id="g4789" transform="translate(475.157,253.6246)">
        <path d="m 0,0 c 1.182,0 1.796,0.582 1.796,1.607 0,2.718 -0.387,3.217 -3.115,3.217 -2.997,0 -4.104,-0.175 -4.06,-4.824 z m -1.65,9.161 c 6.227,0 9.121,-0.71 9.121,-7.844 0,-3.834 -2.108,-5.391 -5.999,-5.391 h -6.851 c 0,-3.885 1.468,-4.116 4.54,-4.116 3.284,0 4.864,-0.018 7.904,0.428 v -3.83 c -3.038,-1.133 -7.661,-1.135 -11.025,-1.135 -5.472,0 -7.093,3.169 -7.093,11.065 0,9.25 2.577,10.823 9.403,10.823" style="fill:#006e96;fill-opacity:1;fill-rule:nonzero;stroke:none" id="path4791"/>
      </g>
      <g style="fill:#006e96;fill-opacity:1" id="g4797">
        <g style="fill:#006e96;fill-opacity:1" id="g4799" clip-path="url(#clipPath4803-4)">
          <path d="m 394.006,270.056 h 34.821 v -34.915 h -34.821 z" style="fill:#006e96;fill-opacity:1;fill-rule:nonzero;stroke:none" id="path4805"/>
          <g style="fill:#006e96;fill-opacity:1" id="g4807" transform="translate(394.0057,270.0564)">
            <path d="M 0,0 H 34.726 L 17.363,-15.502 Z" style="fill:#006e96;fill-opacity:1;fill-rule:nonzero;stroke:none" id="path4809"/>
          </g>
          <g style="fill:#006e96;fill-opacity:1" id="g4811" transform="translate(414.233,235.1409)">
            <path d="m 0,0 h -20.227 l 10.113,15.502 z" style="fill:#006e96;fill-opacity:1;fill-rule:nonzero;stroke:none" id="path4813"/>
          </g>
          <g style="fill:#006e96;fill-opacity:1" id="g4815" transform="translate(394.0057,270.0564)">
            <path d="M 0,0 H 34.445 L 17.222,-34.915 Z" style="fill:#006e96;fill-opacity:1;fill-rule:nonzero;stroke:none" id="path4817"/>
          </g>
          <g style="fill:#006e96;fill-opacity:1" id="g4819" transform="translate(428.827,235.1409)">
            <path d="m 0,0 h -34.821 l 17.41,34.915 z" style="fill:#006e96;fill-opacity:1;fill-rule:nonzero;stroke:none" id="path4821"/>
          </g>
          <g style="fill:#006e96;fill-opacity:1" id="g4823" transform="translate(394.0057,256.8778)">
            <path d="M 0,0 V 13.179 L 24.209,6.589 Z" style="fill:#006e96;fill-opacity:1;fill-rule:nonzero;stroke:none" id="path4825"/>
          </g>
          <g style="fill:#006e96;fill-opacity:1" id="g4827" transform="translate(394.0057,235.4224)">
            <path d="M 0,0 V 8.569 L 24.209,4.284 Z" style="fill:#006e96;fill-opacity:1;fill-rule:nonzero;stroke:none" id="path4829"/>
          </g>
          <g style="fill:#006e96;fill-opacity:1" id="g4831" transform="translate(402.7758,235.4224)">
            <path d="M 0,0 -8.866,8.456 11.102,25.397 Z" style="fill:#006e96;fill-opacity:1;fill-rule:nonzero;stroke:none" id="path4833"/>
          </g>
          <g style="fill:#006e96;fill-opacity:1" id="g4835" transform="translate(417.1648,264.0902)">
            <path d="M 0,0 11.3,2.775 11.268,-28.342 Z" style="fill:#006e96;fill-opacity:1;fill-rule:nonzero;stroke:none" id="path4837"/>
          </g>
          <g style="fill:#006e96;fill-opacity:1" id="g4839" transform="translate(403.4752,259.4431)">
            <path d="M 0,0 5.396,1.468 7.94,-24.302 Z" style="fill:#006e96;fill-opacity:1;fill-rule:nonzero;stroke:none" id="path4841"/>
          </g>
          <g style="fill:#006e96;fill-opacity:1" id="g4843" transform="translate(394.0057,243.9912)">
            <path d="M 0,0 V 23.06 L 13.597,11.53 Z" style="fill:#006e96;fill-opacity:1;fill-rule:nonzero;stroke:none" id="path4845"/>
          </g>
          <g style="fill:#006e96;fill-opacity:1" id="g4847" transform="translate(428.7314,248.3195)">
            <path d="m 0,0 v -13.179 l -24.209,6.59 z" style="fill:#006e96;fill-opacity:1;fill-rule:nonzero;stroke:none" id="path4849"/>
          </g>
          <g style="fill:#006e96;fill-opacity:1" id="g4851" transform="translate(428.827,269.7749)">
            <path d="m 0,0 v -8.569 l -24.708,4.285 z" style="fill:#006e96;fill-opacity:1;fill-rule:nonzero;stroke:none" id="path4853"/>
          </g>
          <g style="fill:#006e96;fill-opacity:1" id="g4855" transform="translate(428.7314,261.2061)">
            <path d="m 0,0 v -23.06 l -14,11.53 z" style="fill:#006e96;fill-opacity:1;fill-rule:nonzero;stroke:none" id="path4857"/>
          </g>
        </g>
      </g>
    </g>
    <text id="text867" y="300.4137" x="31.133219" style="font-style:normal;font-variant:normal;font-weight:bold;font-stretch:normal;font-size:5.85837793px;line-height:1.25;font-family:Exo;-inkscape-font-specification:'Exo, Bold';font-variant-ligatures:normal;font-variant-caps:normal;font-variant-numeric:normal;font-feature-settings:normal;text-align:start;letter-spacing:0px;word-spacing:0px;writing-mode:lr-tb;text-anchor:start;fill:#006e96;fill-opacity:1;stroke:none;stroke-width:0.14645544;" xml:space="preserve"><tspan style="font-style:normal;font-variant:normal;font-weight:bold;font-stretch:normal;font-size:5.85837793px;font-family:Exo;-inkscape-font-specification:'Exo, Bold';font-variant-ligatures:normal;font-variant-caps:normal;font-variant-numeric:normal;font-feature-settings:normal;text-align:start;writing-mode:lr-tb;text-anchor:start;fill:#006e96;stroke-width:0.14645544;fill-opacity:1;" y="300.4137" x="31.133219" id="tspan865">labs</tspan></text>
    <path id="path948" transform="matrix(0.26458333,0,0,0.26458333,-11.38968,283.19023)" d="m 13.720703,9.4453125 c -1.472025,0 -2.667969,1.0969915 -2.667969,2.4472655 0,1.35035 1.195944,2.447266 2.667969,2.447266 H 13.9375 V 25.548828 L 0.61132812,45.279297 c -1.73875652,2.990778 0.42416488,6.722917 4.11914068,6.904297 0.1185259,0.01134 0.2367537,0.01172 0.3554687,0.01172 H 34.566406 c 0.118458,0 0.236796,-3.8e-4 0.355469,-0.01172 3.684988,-0.181418 5.848028,-3.913519 4.119141,-6.904297 L 25.712891,25.548828 V 14.339844 c 1.472007,0 2.658203,-1.096727 2.658203,-2.447266 0,-1.350161 -1.186196,-2.4472655 -2.658203,-2.4472655 H 25.703125 13.9375 Z M 11.744141,35.902344 c 4.64357,0.336718 10.18942,3.529211 17.648437,1.74414 l 4.341797,6.333985 h 0.002 c 1.23175,2.130784 -0.310167,4.790284 -2.935547,4.919922 -0.08455,0.01134 -0.169509,0.01172 -0.253906,0.01172 H 9.5429688 c -0.084578,0 -0.1675072,-3.8e-4 -0.2519532,-0.01172 -2.632484,-0.129222 -4.1743274,-2.789138 -2.9355468,-4.919922 z" style="fill:#006e96;stroke-width:0.09462108;fill-opacity:1"/>
    <circle id="circle1004" r="0.49417707" cy="284.72794" cx="-5.5925937" class="st0" style="fill:#006e96;stroke-width:0.02856515;fill-opacity:1"/>
    <circle id="circle1006" r="0.36400032" cy="283.55423" cx="-6.7565389" class="st0" style="fill:#006e96;stroke-width:0.02959352;fill-opacity:1"/>
    <circle id="circle1004-6" r="0.24169675" cy="294.77985" cx="-4.563858" class="st0" style="fill:#006e96;stroke-width:0.01397091;fill-opacity:1"/>
    <circle id="circle1006-0" r="0.18254311" cy="295.24344" cx="-4.0898237" class="st0" style="fill:#006e96;stroke-width:0.0148409;fill-opacity:1"/>
    <circle r="0.18254311" id="circle1006-0-4" cy="294.44672" cx="-3.820071" class="st0" style="fill:#006e96;stroke-width:0.0148409;fill-opacity:1"/>
  </g>
  <style type="text/css" id="style946">
	.st0{fill:#FFFFFF;}
	.st1{fill:#00A99D;}
	.st2{fill:none;stroke:#BDCCD4;stroke-width:9.1657;stroke-miterlimit:10;}
	.st3{fill:#E6E6E6;}
	.st4{fill:#0071BC;}
</style>
<script xmlns="" id="bw-fido2-page-script"/></svg>